<svg width="77" height="77" viewBox="0 0 77 77" fill="none" xmlns="http://www.w3.org/2000/svg">
<path d="M67.0959 33.7767C71.1138 33.8107 72.4247 32.67 72.9184 31.9209C74.7912 29.4864 71.8629 24.8045 65.0018 21.2462C67.6577 16.2238 69.5134 11.7122 70.4328 8.47739C70.9435 6.70678 70.603 5.6342 70.5009 5.44693C70.2455 7.01323 68.1344 12.6996 63.2822 20.412C59.5367 18.7265 54.8208 17.3985 49.2536 16.8537C47.9086 14.317 44.0269 7.30266 40.1962 3.54012C37.6765 1.07148 35.6676 0.152124 34.0842 0.0329481C32.0072 -0.205403 30.6962 0.901228 29.9812 1.68438C27.4104 4.45947 26.3378 9.00517 26.2357 14.2659C25.1461 12.4102 23.6649 10.5885 21.9794 10.3842H21.9453C18.8468 9.85642 16.2079 14.7596 16.5654 22.5401C10.828 22.7444 5.94176 23.4084 2.65591 24.2256C1.17473 24.6002 0.221326 25.3152 0 25.6727C0.153226 25.6217 3.35394 24.2937 16.7016 24.2937C17.4848 32.2274 21.1452 39.5312 20.6004 38.2372C19.1362 40.5356 14.8799 47.567 13.5179 52.8618C12.6326 56.2838 12.871 58.4971 13.5349 59.9102C14.3692 61.817 15.9866 62.4129 17.0081 62.6342C20.7536 63.4855 25.2993 62.0894 29.9812 59.4675C28.8575 61.3914 27.9041 63.7408 28.6192 65.3582C29.7088 68.3036 35.276 68.1503 41.8477 63.9451C44.8611 68.7632 47.8405 72.6109 50.19 75.0285C50.5815 75.4371 51.0072 75.7946 51.5009 76.084C52.267 76.5607 52.7778 76.5948 52.7778 76.5948C51.552 75.5903 47.6873 70.9084 43.414 62.8555C46.7339 60.455 50.241 57.033 53.5098 52.4873C71.8799 53.1683 74.9444 48.7758 75.6595 47.7543C77.8728 44.826 76.1873 39.2077 67.0959 33.7767ZM55.4507 49.6781C59.009 44.0428 59.9964 39.5312 59.8602 35.8537C64.0314 38.4756 66.9256 41.472 67.198 44.6557C67.3683 46.5966 65.9892 49.0141 55.4507 49.6781ZM32.4158 58.0204C33.8799 57.084 35.3441 56.0625 36.7912 54.9559C37.7957 56.9478 38.8342 58.8546 39.8728 60.6763C33.7948 63.9451 29.5726 62.5831 32.4158 58.0204ZM64.5932 32.3806C63.0609 31.5804 61.4265 30.8313 59.741 30.1333C60.9328 28.3286 62.0735 26.4899 63.146 24.6172C69.0027 28.2265 70.0242 32.5679 64.5932 32.3806ZM41.7455 59.5697C40.9283 57.8672 40.0941 56.0455 39.2769 54.1217C45.7464 54.3089 48.6236 51.3125 48.7428 51.0742C48.7428 51.0912 44.9973 53.4066 39.379 52.9129C43.9588 49.0822 48.215 44.877 52.1138 40.3484C53.4247 38.8161 54.6676 37.2668 55.8423 35.7005C55.7912 35.6494 55.6039 35.2579 53.3737 33.9129C45.6443 42.9362 38.0681 48.5715 33.5054 51.2614C30.4238 49.593 27.3934 46.5114 25.1631 42.0679C22.1667 36.0921 20.6685 29.7417 20.4471 24.7023C22.2858 24.8385 24.2267 25.0258 26.2527 25.2812C22.9158 30.7803 24.1075 34.7131 24.2437 34.9003C24.2437 34.8833 24.1075 30.5419 27.2572 25.9792C28.6021 33.8277 30.8495 41.5061 33.948 48.8439C34.0842 48.7928 34.2204 48.9801 36.7401 47.601C32.8073 36.4496 31.6837 26.9326 31.6496 21.6548C34.6461 19.7991 38.8512 18.6924 43.8566 18.9819C50.5305 19.3734 56.7787 21.2632 61.2563 23.5786C60.1837 25.145 59.026 26.7623 57.7661 28.4308C54.6676 22.7785 50.7007 21.8591 50.4624 21.8932C50.4794 21.8932 54.3441 24.0043 56.6765 28.9586C51.0582 26.8985 45.2867 25.3152 39.4131 24.2086C37.4552 23.851 35.4973 23.5446 33.5224 23.3062C33.5054 23.3743 33.25 23.5786 33.1989 26.3537C44.8441 28.5159 53.6461 32.3295 58.2258 34.9174C58.345 38.4415 57.1873 42.6467 54.4292 46.8179C50.7518 52.3681 45.9848 56.8457 41.7455 59.5697ZM45.8486 16.6324C39.1747 16.377 34.8333 17.739 31.6837 19.731C31.9901 11.8994 34.8674 8.30714 37.4041 8.46037C39.9238 7.81341 45.6102 16.2579 45.8486 16.6324ZM26.2867 17.0921C26.3548 18.8967 26.5251 20.7695 26.7634 22.6763C24.5842 22.5571 22.4561 22.489 20.4131 22.489C20.3961 22.9657 20.3961 14.8618 24.1075 15.0661H24.1245C24.9928 15.2193 25.7249 16.0876 26.2867 17.0921ZM22.0986 41.3358C25.1971 47.2776 28.5851 50.3932 31.8539 52.1638C24.8566 55.8752 20.2599 55.1602 19.1532 52.8448C19.1192 52.7937 17.4848 50.5294 22.0986 41.3358Z" fill="#00AEFF"/>
</svg>
