<svg width="154" height="75" viewBox="0 0 154 75" fill="none" xmlns="http://www.w3.org/2000/svg">
<path fill-rule="evenodd" clip-rule="evenodd" d="M40.0217 61.8823C40.0217 61.8823 40.3444 63.3826 41.1403 62.8171C41.9362 62.2527 42.2589 61.4056 43.0548 61.4056C43.8508 61.4056 47.1687 60.7466 47.9647 61.4056C48.7606 62.0646 48.8403 61.4992 49.2383 61.4992C49.6363 61.4992 50.8053 61.7185 50.8053 61.7185C51.8229 61.6064 51.6155 59.8975 50.8801 59.3974C49.8185 58.519 48.3893 57.9545 47.328 57.0752C47.2216 56.2281 47.1157 55.3809 47.0096 54.5338C47.3013 54.0951 47.5932 53.6555 47.8852 53.2158C47.8852 51.8044 47.8852 50.3924 47.8852 48.9804C47.7259 48.6038 47.5667 48.2273 47.4075 47.8507C47.3544 46.7842 47.3013 45.7175 47.2483 44.6505C47.1157 44.4622 46.9829 44.2739 46.8503 44.0857C46.8503 43.678 46.8503 43.27 46.8503 42.8619C47.1157 42.4542 47.6531 42.0464 47.9187 41.6384C47.9982 40.8539 47.6424 40.3003 47.7221 39.5158C47.5362 38.5119 47.5136 37.2771 47.328 36.2731C47.328 35.0493 47.328 33.8256 47.328 32.602C48.0979 32.3595 48.2845 31.999 48.3395 31.6342C48.4101 31.1647 48.1925 30.6121 47.9647 29.4957C47.8586 23.6284 47.807 17.5302 47.7008 11.6627C48.1243 10.9615 48.6319 10.5987 48.6426 10.0792C48.6509 9.67477 48.2398 9.33757 47.726 8.88143C47.726 8.47355 47.726 8.06589 47.726 7.65771C47.726 7.65771 48.6016 5.77506 49.3178 5.77506C50.0343 5.77506 50.5119 5.21041 50.5119 4.64568C51.1656 3.27357 49.7955 3.13954 49.7955 3.13954C48.2793 3.1063 46.5619 3.18829 45.0829 3.15534C43.7782 3.12599 42.7073 2.98082 41.4377 2.95128C40.8805 2.98287 40.3232 3.01396 39.766 3.04535C38.3966 3.48472 38.6844 4.27037 39.2088 4.70925C39.8455 5.13273 40.3889 5.6178 41.1191 5.63398C42.0103 5.65358 42.7197 5.96212 43.0296 6.90462C43.1093 10.6698 43.1887 14.4351 43.2683 18.2002C43.2949 20.9771 43.3759 23.7541 43.4022 26.5305C43.4288 29.3071 43.4013 32.0842 43.4275 34.861C43.4806 38.1243 43.5336 41.3874 43.5868 44.6505C43.5868 44.6505 43.4275 45.8742 43.1887 46.1566C42.95 46.439 43.0296 48.8862 43.0296 48.8862C43.9111 49.6976 43.7237 49.5841 43.1093 50.6748C43.0559 53.091 43.0029 55.5067 42.95 57.9224C42.7377 58.3621 42.5254 58.8017 42.3131 59.2404C42.3131 59.2404 40.0217 60.6588 40.0217 61.8823V61.8823ZM1.47308 73.5835C0.292753 73.3271 0.071441 72.7236 0.490689 72.3678C0.742279 72.1543 1.41484 72.1621 1.71719 72.013C2.15966 71.7926 2.61161 71.5041 2.878 71.1561C3.33328 70.5605 3.0571 69.182 3.6004 68.059C4.12248 63.3212 4.27888 57.044 3.75708 54.9325C3.44382 51.6782 3.76539 40.8685 3.76539 39.4985C4.11206 38.8403 4.24215 38.7864 4.24483 37.6332C4.24575 37.1824 4.53282 36.4809 4.22703 35.9234C3.78348 35.3884 3.91753 33.2966 3.88284 32.1176C3.83154 30.3624 3.95344 30.3768 4.41573 28.7867C4.58975 28.1885 4.64871 27.4767 4.41573 26.903C4.03907 25.9761 3.49447 27.0471 3.53074 25.1853C3.61959 20.6673 3.77906 16.122 3.66658 11.6059C3.69094 11.2035 4.32529 11.13 4.44949 10.7496C4.60737 10.2659 4.65969 9.66777 4.44949 9.20842C4.33046 8.94803 3.66425 9.2867 3.46881 9.08939C2.27444 7.88368 0.773605 7.12631 0.081507 5.5176C-0.186756 4.89369 0.245904 3.513 0.814606 3.2146C1.75676 2.72006 3.50924 3.23127 4.54011 3.04342C5.09448 2.94252 5.4453 2.59402 6.00687 2.56789C10.3869 2.36405 14.8942 1.90145 19.2586 2.35827C19.9572 2.43138 20.1874 3.73351 20.8242 4.05677C21.6971 4.49994 22.9735 4.40499 23.6426 5.16128C24.7151 6.37303 25.4845 7.37129 25.6206 9.05107C25.7877 11.1125 26.123 13.4474 26.1065 15.0308C26.0927 16.3568 25.7155 17.5537 25.156 18.6941C24.3895 20.2572 23.4772 21.7159 22.4893 23.26C21.9198 24.1499 20.9062 24.976 20.6677 25.9909C20.4212 27.0399 22.9865 26.2697 23.5114 27.1883C24.0158 28.0713 23.081 29.1059 23.363 30.101C23.6148 30.9884 25.0693 31.0748 25.242 31.9846C25.6875 34.3326 24.7045 36.8156 25.0855 39.177C25.2072 39.9331 26.3428 39.96 26.4531 40.7183C26.5871 42.3569 26.5392 44.0913 26.5513 45.8321C26.564 47.685 26.6319 49.5462 26.6095 51.3076C26.5664 51.9716 25.7436 52.3599 25.6702 53.0199C25.4742 54.7775 26.0458 56.7623 25.6785 58.4859C25.2914 60.3011 23.9101 61.583 23.3712 63.3513C22.9045 64.8828 23.0369 67.1192 22.2837 68.0794C21.038 68.4928 19.4875 69.4188 18.5063 70.1909C17.0724 71.3179 16.1558 72.6096 15.715 72.6505C15.1549 73.1769 13.9701 72.825 13.2756 73.099C12.6353 73.3505 12.5749 73.9178 11.8996 73.8252C11.3664 73.7531 11.5326 73.2852 11.1167 72.9137C10.8746 72.6963 10.409 72.6827 10.1773 72.9137C8.77182 74.1089 9.82013 73.796 8.22418 73.64C6.60296 73.4821 3.44731 74.0105 1.47373 73.5835H1.47308ZM10.5554 66.7097C10.9208 65.9679 11.2862 65.226 11.6517 64.4832C11.5471 62.0294 11.4428 59.5748 11.3384 57.1201C11.6517 56.6629 11.9648 56.2066 12.2779 55.7494C12.2779 53.2772 12.2779 50.805 12.2779 48.3325C12.2779 47.2085 12.1296 46.0845 12.1296 44.961C11.0304 44.0005 11.556 44.0144 12.4427 42.9061C12.4427 41.8217 12.6902 40.9467 12.6902 39.862C12.5856 38.9488 12.4813 38.0354 12.3769 37.1221C12.5337 36.6655 12.6902 36.2088 12.8467 35.7521C12.8467 34.3786 12.995 33.2672 12.995 31.8935C12.995 30.6038 13.0304 30.1717 13.2536 30.2525C13.4768 30.3333 13.8881 30.9274 14.6391 31.6902C15.2097 32.27 15.7807 32.85 16.3515 33.4296C17.4059 34.5001 18.4326 34.5975 18.0053 36.3516C17.606 37.9925 18.7537 38.4478 18.397 40.0762C18.1245 41.32 17.7663 42.0805 17.8457 42.8516C17.893 43.3142 18.0982 43.7806 18.5731 44.3576C19.012 44.8906 19.1583 44.8574 18.8959 45.5134C18.4891 46.5301 18.1423 47.123 18.1016 47.7334C18.0492 48.5177 18.4537 48.8781 18.8084 50.2636C19.0986 51.3969 19.0714 52.1483 18.8028 53.285C18.4848 54.6332 18.1667 55.9814 17.8485 57.3297C17.8127 58.3494 17.7248 59.37 17.6562 60.3907C17.5525 61.9456 17.3563 61.9856 16.333 63.0969C15.4032 64.1069 14.2066 64.9706 13.3097 65.8733C12.3181 66.273 11.5467 66.31 10.5551 66.7097H10.5554ZM12.951 23.4409C13.7454 23.4656 14.1006 23.5486 14.3469 23.4415C14.5933 23.3341 14.7308 23.0363 15.0901 22.3C15.5542 21.3479 16.2415 20.1582 16.8116 20.0687C17.772 19.9181 18.273 19.7671 18.273 19.7671C18.273 19.7671 18.7756 19.6665 18.6037 18.3579C18.4316 17.0494 18.0772 15.791 18.3895 15.4388C18.7016 15.0866 18.7676 14.0801 18.4353 13.6774C18.1034 13.2749 17.7877 12.8721 18.3241 12.3186C18.8605 11.765 19.2303 10.8382 17.9486 10.9893C16.6669 11.1403 16.6828 10.5542 16.5347 10.1514C16.3864 9.74886 14.9884 9.84079 14.2574 9.79643C13.5272 9.94744 12.9131 9.89704 12.9341 10.7022C12.9554 11.5073 12.8326 15.3886 12.8432 15.7912C12.8537 16.1938 12.951 23.4409 12.951 23.4409V23.4409ZM53.4934 58.7705C53.4363 59.1127 52.6929 59.1147 52.75 59.4578C52.8299 59.9365 52.8596 60.6841 53.3162 60.7465C54.6402 60.9279 56.4554 60.3712 57.7683 60.6276C58.2868 60.729 58.3151 61.6629 58.7905 61.9037C59.181 61.8969 59.7822 61.9115 60.2775 61.9037C60.6587 61.6941 60.5562 60.9552 60.928 60.7261C61.3857 60.4434 62.0102 60.3362 62.5078 60.5292C62.7756 60.6335 62.4101 61.3773 62.6936 61.4134C65.0098 61.3207 67.079 61.5888 69.2705 61.4134C69.7082 61.3373 69.2622 60.6754 69.6208 60.4005C70.0284 60.0875 71.0389 60.6335 71.1076 60.1061C71.4635 57.3794 70.908 54.3349 71.1504 51.5951C71.228 50.7179 72.0246 50.1978 72.2028 49.3369C72.262 49.0502 72.5873 49.0451 72.6132 48.7627C72.7034 47.7795 72.6869 46.5869 72.4514 45.6187C72.1392 45.2804 71.1847 45.1574 70.8716 45.3114C70.5189 45.586 70.8396 46.5602 70.6028 46.9493C70.4856 47.142 70.0684 46.7562 69.9522 46.9493C69.8381 47.1392 69.9856 47.4508 70.038 47.6971C70.0693 47.8447 70.0664 47.9692 69.9522 48.0294C69.3428 48.3513 68.4454 47.5875 67.9077 48.0294C67.38 48.463 67.9725 49.302 67.5261 49.8278C66.8024 50.6799 65.2517 51.1791 64.5309 52.034C63.6737 53.0501 63.7502 54.0873 62.7653 54.9647C61.9943 55.651 60.6842 55.7231 59.7499 56.1238C58.6669 56.5888 58.1498 57.4457 57.0249 57.7801C56.685 57.8815 56.2703 57.2536 56.3743 56.8968C57.2172 54.0103 58.3124 51.1082 59.2224 48.2443C59.8061 46.407 60.0801 45.2479 60.7107 43.4275C61.3633 41.5438 62.2158 39.2155 63.2813 37.5551C63.4911 37.2279 64.1913 37.4415 64.3036 37.0642C64.5822 36.1276 64.0608 35.0663 64.3036 34.1187C64.4831 33.4174 65.1819 32.7444 65.7604 32.3514C66.1511 32.0861 66.7747 32.4558 66.9472 32.0002C67.35 30.9364 66.9737 29.8096 67.2273 28.6956C67.3983 27.9451 67.8862 27.4852 68.1967 26.7862C68.6086 25.8585 68.5786 25.0531 69.0331 24.1478C69.4031 23.4112 70.1816 22.3802 70.4058 21.5803C70.7137 20.4819 70.4614 19.9429 70.5616 18.8021C70.5884 18.495 71.0144 18.325 71.0263 18.0166C71.1705 14.3219 71.3556 10.6141 71.1504 6.92226C71.1338 6.62142 70.4941 6.6344 70.4999 6.33317C70.5221 5.20497 70.6517 4.20817 70.5928 3.1914C70.5815 2.99272 70.6465 2.83 70.4585 2.82172C67.5485 2.69274 64.6763 2.76276 61.7643 2.79863C59.3792 2.82778 56.988 2.62579 54.6086 2.79863C54.2486 2.82476 53.9259 2.89015 53.6793 3.16828C53.4427 3.4351 53.3252 4.00452 53.339 4.36951C53.4016 6.01029 53.3078 7.79662 53.339 9.76954C53.3445 10.1351 54.0263 9.91635 54.1439 10.2605C54.4716 11.219 54.4967 12.2883 54.4228 13.3041C54.3992 13.6305 54.0236 14.0699 54.0309 14.3967C54.1802 15.5325 54.3195 16.3352 54.5157 17.4277C54.6286 17.8502 54.9726 18.1802 55.0733 18.6059C55.1934 19.1148 54.7542 20.1428 55.2492 20.1768C55.4136 20.1879 55.9873 20.2892 56.2813 20.1768C56.6595 20.032 56.1423 19.2996 56.2813 18.9004C56.3799 18.6174 56.8867 18.609 56.9319 18.3114C57.1776 16.6947 56.7506 14.8003 56.9934 13.1828C57.0674 12.6899 57.3348 12.1693 57.7368 11.9065C58.0789 11.6828 58.6978 12.2422 58.945 11.9065C59.2876 11.4408 58.9505 10.9044 59.1623 10.3587C59.4656 9.57769 59.9589 8.85755 60.5562 8.29681C61.1048 7.7816 61.6536 7.16501 62.3834 7.08478C64.0151 6.9057 65.967 7.06644 68.1766 6.96593C68.3838 6.95618 68.4395 7.29271 68.4554 7.51137C68.5335 8.5881 68.7191 10.051 68.4554 10.7514C68.0727 11.768 67.207 12.9026 66.3281 13.9584C65.7269 14.6803 65.1191 15.3192 64.6551 16.0428C64.0991 16.9104 64.9299 18.0934 64.6452 19.0969C64.3538 20.1234 63.5578 21.2146 62.941 22.0654C62.435 22.7634 61.6912 23.1207 61.2169 23.843C60.6246 24.7448 60.2797 25.6329 59.9057 26.6569C59.5948 27.5083 59.3943 28.407 59.2552 29.3078C59.1454 30.0192 59.4671 30.8234 59.1623 31.4678C58.9389 31.9398 58.4349 31.8528 58.1099 32.2532C57.6593 32.8089 57.3953 33.5212 57.1806 34.2169C56.9263 35.0407 56.9055 35.5288 56.5086 36.287C56.0633 37.1375 55.1695 37.9589 54.7644 38.8314C54.3225 39.783 54.2719 40.9394 54.051 41.9732C53.8374 42.9731 53.6588 43.9148 53.4634 44.9187C53.224 46.1473 52.9742 47.3957 52.9987 48.6497C53.0061 49.0312 53.3881 49.2939 53.5563 49.6314C53.6983 49.9165 54.0244 50.2094 53.928 50.5151C53.7964 50.9327 53.0575 50.9629 52.9987 51.3988C52.938 51.8488 53.0464 52.2643 53.3591 52.5772C53.631 52.8482 54.1861 52.7303 54.3814 53.0676C54.5914 53.4313 54.5537 53.9596 54.3814 54.3437C54.2381 54.6644 53.7349 54.5864 53.6693 54.9334C53.4021 56.346 53.7301 57.3521 53.4934 58.7705V58.7705ZM134.068 72.6847C133.893 72.0997 134.329 71.9857 134.619 71.6805C135.042 71.234 135.452 70.7983 135.62 69.919C135.684 69.5856 136.006 69.0465 136.081 68.5122C136.191 67.7324 136.023 66.9193 135.822 66.4153C135.558 65.7553 135.125 65.4113 135.282 64.7815C135.337 64.3789 136.199 64.3291 136.878 64.0104C137.235 63.8437 137.54 63.5171 137.654 63.21C137.802 62.8055 137.308 62.8747 137.056 62.3609C136.787 61.814 136.747 60.9952 136.541 60.5877C136.18 59.878 135.52 58.9255 135.496 58.1193C135.432 55.9688 136.021 53.7978 136.097 51.7286C136.161 49.9936 136.549 49.58 136.424 47.8022C136.362 46.9169 135.911 46.2728 135.446 45.369C135.062 44.6199 134.556 43.8786 134.362 43.172C134.018 41.9148 134.364 40.4244 134.155 39.1343C134.115 38.8814 133.515 38.5721 133.493 38.3163C133.338 36.5452 133.527 34.7316 133.419 32.9798C133.364 32.6502 133.111 32.5874 133.081 32.2542C132.994 31.2723 133.081 30.3159 133.078 29.4671C133.075 28.718 132.977 28.0779 132.977 27.2075C132.977 26.8829 132.722 26.6607 132.712 26.3362C132.651 24.4208 132.726 22.3057 132.702 20.3872C132.676 18.3448 132.558 16.4986 132.712 14.4648C132.739 14.122 133.395 14.1303 133.382 13.7867C133.321 12.2283 133.194 11.6085 133.228 10.041C133.232 9.8602 133.582 9.43994 133.596 9.25959C133.699 7.95552 133.852 6.65019 133.537 5.53417C133.31 4.72582 132.736 4.47401 132.078 3.95256C131.496 3.49194 130.848 2.74317 130.31 2.32349C129.621 1.78605 129.163 1.35379 128.641 0.548947C128.328 0.0645404 128.845 0.0222377 129.423 0.00439781C130.165 -0.0185113 130.975 0.0499274 131.681 0.166715C131.92 0.206197 132.369 0.641271 132.595 0.733785C133.14 0.956832 133.496 0.667211 134.053 0.850971C134.478 0.991448 136.255 1.96981 136.733 2.26081C137.386 2.65835 137.597 3.23606 138.279 3.57375C138.402 3.63448 140.508 4.27152 140.753 4.33616C141.323 4.48658 141.678 4.04606 142.248 4.19648C142.91 4.37098 144.089 4.72357 144.832 4.9588C145.251 5.09119 145.516 5.61431 145.945 5.70458C148.026 6.14326 147.654 5.41047 149.302 7.15128C149.787 7.66424 150.589 8.0762 150.951 8.69261C151.462 9.56247 151.516 10.6287 151.84 11.5767C152.093 12.3138 152.658 12.9193 152.792 13.7025C153.153 15.8102 152.776 18.002 153.021 20.1283C153.095 20.7777 153.727 21.4628 153.794 22.1134C154.046 24.6041 154.088 27.0636 153.801 29.5501C153.704 30.3882 153.036 30.7291 152.917 31.5639C152.719 32.9644 153.115 34.3986 153.021 35.8115C152.976 36.488 152.62 37.1943 152.284 37.7718C152.039 38.1924 151.478 38.3439 151.298 38.7992C150.824 39.9944 150.944 41.6284 150.724 42.9234C150.656 45.3952 150.704 47.3127 150.804 49.783C150.875 51.5242 151.044 53.0871 150.834 54.8155C150.76 55.4141 150.286 55.7426 150.201 56.3402C149.966 57.9916 150.168 59.6879 150.016 61.35C149.99 61.6327 149.594 61.9603 149.537 62.2381C149.432 63.7569 149.332 65.9737 148.705 67.6836C148.293 68.8115 147.29 69.9482 146.326 70.6014C145.393 71.234 144.39 71.3705 143.315 71.6601C142.636 71.8424 141.876 71.7546 141.254 72.0948C140.881 72.2995 141.131 72.3025 140.791 72.5599C140.594 72.7071 140.255 72.7198 140.069 72.5599C139.807 72.3327 139.888 72.2401 139.583 72.087C139.117 71.854 138.51 71.8726 138.036 72.087C137.695 72.242 137.82 72.5238 137.454 72.5989C136.717 72.7509 135.853 72.9479 135.056 72.9255C134.579 72.9128 134.203 73.1399 134.068 72.6847V72.6847ZM140.987 16.7551C142.023 16.6972 142.226 16.6378 143.147 17.1609C144.101 17.7009 144.3 18.0571 144.882 19.0328C145.183 19.3389 145.483 19.6452 145.783 19.9511C147.007 21.1997 147.585 22.962 148.085 24.6133C148.167 26.406 148.532 29.5468 147.684 31.1736C147.262 31.9856 147.095 32.6124 147.023 33.3014C146.823 35.2293 146.305 34.9283 145.778 36.3882C145.635 36.7842 145.666 37.2769 145.654 38.2168C145.607 41.573 145.56 44.9296 145.514 48.2856C145.485 50.43 145.103 51.4532 144.282 53.4332C143.801 54.3798 143.548 54.99 143.548 56.0643C143.548 57.3375 143.302 57.9244 142.823 59.0844C142.531 59.7902 142.239 60.497 141.947 61.2037C141.601 62.0411 141.284 62.3414 141.054 62.2293C140.824 62.1182 140.682 61.5927 140.686 60.7797C140.706 56.6823 140.726 52.586 140.746 48.4887C140.791 44.1327 140.835 39.7766 140.879 35.4208C140.828 34.4853 140.861 34.278 140.28 33.5842C140.225 32.1741 139.968 31.5362 139.545 30.1937C139.012 29.1351 139.073 28.3628 139.06 27.1526C139.027 24.1252 138.992 21.0973 138.959 18.0699C138.939 16.2121 139.337 16.8472 140.987 16.7551V16.7551ZM73.4107 68.8408C73.0918 67.1933 73.3148 65.884 73.3984 64.645C73.4383 64.3496 74.0023 64.6255 74.1556 64.3759C74.3843 64.0026 74.5908 63.4908 74.4396 63.0755C74.349 62.8269 74.1886 63.17 74.0532 62.9448C73.8661 62.6348 73.9318 62.1338 74.1477 61.8452C74.4628 61.4231 75.093 61.5323 75.3082 61.0449C75.6017 60.38 75.098 59.5436 75.3082 58.8446C75.3751 58.6223 75.9188 59.0717 75.9708 58.8446C76.216 57.7752 75.911 56.6326 76.0655 55.5447C76.1057 55.261 76.3427 55.1295 76.3739 54.8448C76.5052 53.6525 76.5736 52.4261 76.3739 51.2444C76.25 50.5108 75.6889 49.9827 75.5922 49.2444C75.2409 46.5668 75.1346 43.6513 75.4607 40.9699C75.714 38.8883 76.9702 35.6693 77.7079 33.7205C78.1694 32.5014 78.3956 32.8816 78.8104 31.6437C78.9371 31.2653 79.0251 30.8244 78.9051 30.4436C78.7556 29.9694 78.2258 29.6068 78.3004 29.113C78.3918 28.5081 79.0959 28.5233 79.2837 27.9435C79.5389 27.1552 79.0253 26.2307 79.2837 25.4435C79.5878 24.5173 80.6358 23.9853 80.8929 23.0434C81.1383 22.1446 80.8752 20.7086 81.1155 19.808C81.5905 18.0288 82.1611 16.8795 82.9753 15.243C83.4561 14.2768 84.2915 13.4604 84.6669 12.4429C85.0288 11.4626 84.9919 10.1647 85.1524 9.34283C84.5609 8.56158 83.2034 9.65195 82.3128 9.31221C81.8609 9.13996 81.8625 8.35942 81.4152 8.17332C80.4573 8.10449 79.5415 8.08117 78.8596 8.62153C77.9448 9.34624 77.9375 10.1958 77.5799 11.3428C77.0456 13.0567 77.4528 14.9823 76.7859 16.643C76.5222 17.2998 75.4463 17.4845 74.9296 17.9431C74.6562 18.1857 74.5291 18.4386 74.1723 18.4386C73.8153 18.4386 73.5042 18.3083 73.415 17.9431C73.2338 17.201 73.4504 16.4089 73.415 15.643C73.3872 15.0402 73.0816 14.427 73.2258 13.843C73.3009 13.5387 73.96 13.6566 73.983 13.343C74.266 9.90698 73.877 6.49313 73.9267 3.20981C73.9441 2.05704 74.2337 2.22795 75.3078 2.21645C77.117 2.19676 79.9844 2.21156 82.064 2.20044C85.7125 2.18114 89.3702 2.03726 93.0085 2.14255C93.5501 2.18398 94.2551 2.3964 94.2929 2.96845C94.3695 4.12521 93.636 5.24063 93.1285 6.26861C92.8599 6.8119 92.2602 7.16706 92.0627 7.74271C91.7268 8.71844 92.0913 9.87461 91.737 10.8428C91.5202 11.437 90.4175 11.5469 90.2062 12.1429C89.9063 12.9861 90.4239 14.0051 90.1111 14.843C89.9561 15.259 89.1165 15.0214 88.9753 15.443C88.4991 16.87 88.7787 18.4818 88.4078 19.9432C88.202 20.7499 87.6235 21.3155 87.5192 22.1433C87.235 24.3901 87.7038 26.6855 87.5192 28.9436C87.4786 29.4339 86.9887 29.7721 86.8558 30.2437C86.5439 31.3526 86.3474 32.551 85.9875 33.6438C85.8325 34.1158 85.2567 34.3606 85.1358 34.8438C84.9581 35.5528 85.4034 36.3675 85.1358 37.0439C84.7988 37.8943 83.613 38.2421 83.4319 39.144C82.9209 41.6893 83.73 44.373 83.3539 46.9443C83.1857 48.095 82.2258 48.999 82.0287 50.1444C81.7749 51.6201 82.2122 53.3649 81.8639 54.8184C81.5281 56.2222 80.565 57.4389 80.0821 58.793C79.9691 60.1217 78.4621 61.3412 79.2837 62.3453C80.2749 62.4837 81.9198 62.6972 83.0699 62.1445C83.5994 61.891 82.9862 60.7173 83.4486 60.3449C84.862 59.2043 86.4839 58.793 88.0701 57.9448C88.9771 57.4594 90.1176 56.9963 90.9268 56.3451C91.3374 56.0136 91.3845 55.2269 91.8726 55.0446C92.167 54.9344 92.2279 55.689 92.5351 55.7446C93.5926 55.9347 94.5098 55.457 95.5478 55.7446C95.963 55.8596 95.9501 56.4494 96.0581 56.888C96.155 57.2809 96.3229 57.704 96.1162 58.0443C95.9917 58.249 95.5404 58.0209 95.4528 58.2451C95.2728 58.7072 95.343 59.2589 95.4528 59.7444C95.5395 60.1227 95.8671 60.3576 95.8976 60.7446C96.0599 62.7714 96.1135 64.8244 95.8976 66.8453C95.8523 67.2693 95.6244 67.7138 95.223 67.7577C92.4927 67.6251 89.9691 67.8367 87.235 67.8455C86.9536 67.8192 87.1151 67.2927 86.8558 67.1757C86.1508 66.856 84.8796 66.8121 84.1313 66.9934C83.261 67.204 83.1882 67.9605 82.3128 68.1447C80.735 68.4781 78.9114 68.1515 77.3205 68.406C76.7582 68.4957 76.3287 68.9997 75.7771 69.1449C75.0118 69.3467 73.805 69.5622 73.4107 68.8408V68.8408ZM31.2476 73.5377C30.0673 73.9754 28.6902 73.5386 27.4391 73.5669C27.0535 73.5756 26.4259 73.8954 26.0555 73.7804C25.6512 73.6556 25.014 72.8085 25.2668 72.4517C26.2542 71.0605 28.2008 70.887 29.1023 69.4335C29.6325 68.5785 29.1358 67.4273 29.3637 66.4339C29.4336 66.1288 29.9396 66.157 30.0893 65.886C30.2109 65.6657 30.2466 65.3138 30.0893 65.1198C29.7298 64.6762 29.5022 65.6062 29.3603 64.2785C29.2334 63.0911 29.2067 61.8852 29.311 60.6988C29.3765 59.9432 29.8964 60.1032 29.9946 59.7044C30.1776 58.9626 29.7969 58.4127 29.9854 57.6718C30.0699 57.3394 30.6532 57.4232 30.8147 57.124C30.9687 56.8393 30.987 56.4123 30.8147 56.1384C30.4616 55.5788 29.5018 55.5876 29.3949 54.9247C29.1981 53.7052 29.3035 52.3959 29.3238 51.1859C29.3455 49.8973 29.2617 48.6049 29.3635 47.2919C29.3822 47.0483 29.9042 47.0587 29.9854 46.8297C30.1429 46.3856 30.0432 45.8765 29.9854 45.4059C29.9391 45.0285 30.0489 44.2562 30.0215 43.8766C29.9795 43.2933 29.7423 43.0767 29.9989 42.5584C30.1778 42.1974 30.761 42.4148 30.8147 42.0109C31.0983 39.878 30.493 37.6911 30.711 35.5493C30.748 35.1865 31.2888 35.2442 31.3796 34.8922C31.526 34.3243 31.5712 33.6716 31.333 33.1399C31.2207 32.8888 30.6909 32.8879 30.6704 32.6109C30.4376 29.4812 30.8427 26.5225 30.6074 23.3928C30.5853 23.0996 29.904 23.5107 29.8914 22.2388C29.8773 20.9058 29.7611 19.6633 29.7782 18.6834C29.7914 17.9316 31.3267 17.9113 31.3104 17.1595C31.2857 16.0139 31.4566 14.7209 31.2067 13.5454C31.1264 13.1675 30.6597 13.23 30.5038 12.8789C30.357 12.5492 30.4955 12.2204 30.6298 11.884C30.7911 11.4791 31.2294 11.2236 31.333 10.7981C31.5227 10.0207 31.5037 9.17135 31.333 8.38874C31.2771 8.13264 30.8587 7.88241 30.7425 7.65001C30.5271 7.2199 30.6245 6.84028 30.3369 6.46009C30.1381 6.19775 29.5512 6.35891 29.3094 6.14084C28.687 5.57932 28.3282 4.95499 27.8062 4.44358C27.3155 3.96327 26.6541 3.60132 26.2761 2.89416C26.0331 2.43988 26.3161 1.65404 26.7087 1.33682C27.0103 1.0933 27.4826 1.14838 27.8175 1.33682C28.0898 1.49027 28.0845 2.1014 28.3899 2.14615C29.726 2.34278 31.0521 1.72142 32.3696 2.02733C32.9439 2.16078 32.9746 2.92722 33.5099 3.1839C33.868 3.35577 34.5136 3.02353 34.8395 3.25613C35.3178 3.59762 35.7236 4.32417 36.1007 4.7299C36.5854 5.25155 37.0033 5.48376 37.2509 6.22241C37.5632 7.15506 37.4264 8.11199 37.4127 9.08207C37.4006 9.93799 37.5324 10.8048 37.4581 11.6743C37.4332 11.9668 36.9015 11.8291 36.8271 12.1123C36.6966 12.6095 36.7899 13.166 37.0344 13.6122C37.2123 13.9371 37.6939 13.7717 37.8097 14.1264C38.0799 14.9552 38.1143 15.9712 37.9134 16.8217C37.8386 17.1383 37.2601 16.9343 37.2418 17.2598C37.009 21.3778 36.9509 25.5315 37.3454 29.6352C37.4123 30.3329 38.4562 30.5813 38.5263 31.2781C38.9175 35.1624 38.5614 39.094 38.4092 42.9965C38.3878 43.5516 38.1274 44.2493 37.9134 44.6635C37.6738 45.1264 37.8227 45.589 37.8317 46.0999C37.8434 46.7569 37.769 47.4733 37.8637 48.1439C37.9178 48.5269 38.6553 48.8915 38.6299 49.2779C38.5601 50.3426 38.7034 50.8458 38.765 51.8955C38.7947 52.4008 37.9237 52.7166 37.6474 53.13C37.4487 53.4273 37.3278 54.0035 37.4897 54.3252C37.6424 54.6284 37.9167 54.4743 38.0036 54.8058C38.1264 55.2747 38.1367 55.6705 37.9134 56.0965C37.7692 56.3704 37.2381 56.3343 37.1877 56.6434C37.0465 57.51 37.5123 58.402 37.3951 59.2726C37.36 59.5329 36.8099 59.45 36.773 59.7103C36.5888 61.0098 36.9816 62.357 36.773 63.6526C36.6943 64.142 35.9769 64.3623 35.9438 64.8575C35.9251 65.1344 36.5456 64.9414 36.6694 65.186C36.865 65.574 36.374 66.3773 36.773 66.5002C38.0994 66.9106 39.7407 66.8043 41.0773 66.4339C41.8343 66.2233 42.1546 65.1022 42.9342 65.0242C43.8732 64.9306 44.5661 65.5858 45.4943 65.7612C46.7181 65.9942 48.0568 66.0361 49.2575 65.6949C49.966 65.4931 50.3777 64.6986 51.1054 64.5963C54.2557 64.1488 57.1792 64.4237 60.3579 64.4062C63.3635 64.3886 67.2086 64.2287 69.4399 64.4861C70.7126 64.5309 69.3326 69.2873 69.7915 71.7995C69.8913 72.3464 70.3336 72.6524 70.5993 73.1584C71.0232 73.9656 71.1876 74.376 70.087 74.3711C68.0166 74.3604 65.9218 74.5291 63.6755 74.4287C63.2341 74.4092 63.2555 73.5103 62.8461 73.3329C62.3976 73.1389 61.8659 73.563 61.3949 73.4431C60.689 73.2627 59.8934 72.5481 59.173 72.4575C57.2519 72.2138 55.3159 72.7227 53.3996 72.4429C52.9646 72.3795 52.9046 71.4904 52.4666 71.4563C47.9869 71.1103 43.6945 71.6074 39.2103 71.3491C38.2498 71.2935 38.1622 70.9397 37.5525 70.7525C36.6899 70.4893 35.1472 70.384 34.3346 70.7866C32.8203 71.5353 32.8251 72.9518 31.2474 73.5377H31.2476ZM85.1737 55.0329C84.2378 55.0037 84.1755 53.4156 84.2499 52.4417C84.326 51.4454 85.5575 51.4977 85.9967 50.6128C86.3169 49.9685 85.8371 48.8358 86.2025 48.2186C86.5956 47.554 87.6613 47.5786 88.0544 46.9141C88.2795 46.5343 87.9437 45.8058 87.9538 45.358C87.9787 44.2976 88.2039 43.5165 88.1578 42.4571C88.1338 41.906 87.9169 40.9107 88.0156 40.3689C88.1513 39.629 88.5683 39.8086 88.775 39.0871C89.0325 38.1847 88.6043 37.1579 88.8775 36.2607C88.9864 35.9058 89.8666 36.0839 89.8039 35.7171C89.7273 35.2707 88.9568 35.511 88.8802 35.0648C88.6468 33.7063 88.6339 32.1077 88.9808 30.7766C89.1977 29.944 90.0918 29.3069 90.3188 28.4767C90.5559 27.6069 90.0539 26.6204 90.3188 25.759C90.4978 25.1742 91.4122 25.0507 91.5534 24.4546C91.8855 23.0481 91.5894 21.323 91.9354 19.9205C92.1171 19.1845 92.4807 18.3502 92.9264 17.8889C93.194 17.612 93.4348 17.4108 93.5603 16.9743C93.7319 16.3765 93.3102 15.8738 93.4071 15.2574C93.4929 14.7121 93.8869 14.362 94.137 13.877C94.4535 13.2646 94.5854 12.4887 94.889 11.8699C95.3319 10.9651 95.928 10.2082 96.2454 9.24563C96.4825 8.52794 95.9732 7.35734 96.2768 6.66762C96.7068 5.69101 97.8177 5.71509 98.2413 4.73517C98.5836 3.94358 97.9847 2.90897 98.3446 2.12616C98.6057 1.55587 99.1954 1.30408 99.7942 1.27893C100.233 1.2605 100.767 1.5816 100.916 2.01736C101.211 2.87124 100.945 3.89728 101.278 4.73517C101.862 6.20866 102.875 7.07716 103.437 8.5606C103.73 9.33406 103.413 10.4463 103.592 11.2576C103.836 12.3607 104.006 13.4731 104.352 14.5473C104.78 15.885 105.393 17.1825 105.753 18.5411C106.072 19.7443 106.148 21.0497 106.394 22.2743C106.573 23.1679 106.902 23.9883 107.194 24.8463C107.318 25.2147 107.74 25.1212 107.84 25.4984C108.017 26.165 107.487 26.8897 107.635 27.564C107.81 28.3697 108.631 29.1862 108.766 30.0006C108.985 31.321 108.757 32.584 108.787 33.9243C108.815 35.1493 108.937 36.2868 109.09 37.4611C109.184 38.1838 109.562 39.2142 109.58 39.7394C109.643 41.6959 109.725 43.6221 109.746 45.5809C109.777 48.4436 109.777 51.5039 109.642 54.3612C109.626 54.6946 109.249 54.8652 109.139 55.1782C108.719 56.3626 108.367 57.0177 108.098 58.2509C107.956 58.9011 107.951 59.6011 107.686 60.2075C107.524 60.5799 106.8 60.885 106.677 61.2739C106.405 62.1396 106.739 63.0101 106.679 64.0903C106.628 65.0203 106.263 65.5546 105.897 66.4192C105.646 67.01 105.238 67.9312 105.083 68.5473C104.914 69.2161 105.218 69.9492 105.033 70.6131C104.935 70.9601 104.486 71.1278 104.415 71.4826C104.237 72.3688 104.569 73.3358 104.312 74.1995C104.167 74.6889 104.066 74.6178 103.624 74.8283C103.311 74.9765 102.488 75.1452 102.441 74.7845C102.241 73.2715 102.644 72.2206 102.417 70.7105C102.152 68.9441 101.452 67.8698 101.031 66.1365C100.826 65.2952 101.192 63.7744 100.814 63.0033C100.133 61.6142 97.9524 61.0527 98.0475 59.4919C98.1388 57.9819 98.9933 56.9992 99.8634 55.7709C100.458 54.9296 100.844 53.556 101.214 52.5977C101.486 51.891 101.645 51.0633 101.657 50.3662C101.676 49.3259 101.409 48.8731 100.663 48.2261C99.1058 46.8738 96.5887 45.6373 94.65 44.6415C94.3658 44.4956 94.0327 45.0685 94.0327 45.4025C94.0327 45.7366 94.4027 45.9963 94.4396 46.3275C94.5476 47.3016 93.9894 48.3123 94.3889 49.197C94.8106 50.1318 96.4742 50.4039 96.2279 51.4058C96.0618 52.0767 95.9058 52.313 95.367 52.6406C95.0403 52.8395 94.6777 52.8259 94.2957 52.8444C93.1497 52.9 91.9714 52.471 90.8641 52.7186C89.6618 52.9877 88.5859 53.5746 87.4749 54.1595C86.7395 54.5475 85.9875 55.0593 85.1737 55.0329V55.0329ZM95.3089 39.8347C95.2987 38.8757 95.2765 37.932 95.2784 36.9888C95.2802 36.156 95.2996 35.3233 95.3614 34.4806C95.402 33.933 95.8763 33.5152 95.9372 32.97C96.0397 32.0686 95.5155 30.9868 95.7545 30.12C95.8505 29.7681 96.6948 30.1209 96.8858 29.8252C96.9485 29.7283 97.0768 29.164 97.2899 28.6828C97.4182 28.3942 97.6849 28.1351 97.6849 28.0245C97.6849 27.8634 97.6747 26.719 97.7891 25.7275C97.8556 25.1519 97.9395 24.6658 98.0226 24.662C98.1047 24.6581 98.1877 25.1353 98.4765 25.5323C98.8087 25.989 98.9213 26.442 99.212 26.9251C99.3836 27.2101 99.5681 27.5457 99.8514 27.6619C100.212 27.8101 100.644 27.6016 101.003 27.7547C101.271 27.869 101.337 28.3142 101.579 28.4916C101.742 28.6116 102.117 28.3831 102.155 28.6021C102.325 29.5892 102.178 30.9101 102.326 31.9016C102.362 32.1393 102.859 32.0287 102.871 32.27C102.946 33.9968 102.984 35.7263 102.979 37.4559C102.974 38.982 102.936 40.5086 102.861 42.0336C102.841 42.4682 101.754 42.4986 101.45 42.2546C100.864 41.7822 100.492 41.2339 99.7241 41.0387C99.4039 40.9576 99.4196 40.422 99.116 40.3151C98.4424 40.078 97.5926 40.019 96.8885 40.019C96.429 40.019 95.7656 40.1903 95.3089 40.1294C95.2249 40.1183 95.3098 39.9323 95.3089 39.8347V39.8347ZM117.161 10.072C117.163 11.0655 117.263 12.1419 117.266 13.1822C117.271 14.521 117.178 15.7203 117.183 17.0698C117.188 18.5069 117.289 20.0942 117.289 21.4996C117.289 22.6419 117.092 24.8377 117.176 25.7865C117.283 27.0065 117.346 27.2178 118.925 27.2178C119.689 27.2178 120.724 26.3899 121.487 25.5532C122.01 24.9804 121.931 23.9917 122.131 23.5641C122.427 22.9355 122.931 22.3605 123.037 21.6307C123.171 20.692 122.847 19.9171 123.439 19.3167C123.672 19.0792 123.893 16.3839 123.893 15.7908C123.893 14.9454 123.052 13.6918 122.086 12.5701C121.426 11.8026 120.633 11.1138 120.295 10.588C119.676 9.62545 119.213 9.20314 118.479 9.03C117.14 8.71386 117.16 8.84381 117.161 10.072V10.072ZM110.087 62.9741C109.837 64.0172 110.597 64.4432 111.497 65.0573C112.395 65.6715 113.434 66.4748 114.412 67.3219C116.067 68.755 117.194 71.3706 118.271 73.9461C118.825 73.3232 118.434 70.4201 118.745 68.6809C118.812 68.3085 119.192 68.0394 119.228 67.6622C119.355 66.31 119.386 64.9345 119.228 63.5863C119.168 63.0833 118.707 62.7158 118.585 62.2274C118.488 61.8443 118.511 61.426 118.585 61.038C118.674 60.5642 119.026 60.1607 119.066 59.6791C119.188 58.2695 119.267 56.8325 119.066 55.4336C118.991 54.9052 118.225 54.6069 118.262 54.0746C118.295 53.634 119.196 53.6662 119.228 53.2255C119.315 51.9629 118.901 50.7444 118.753 49.4887C118.419 46.6657 118.225 43.8261 117.949 40.9964C117.85 39.9766 117.464 38.9498 117.628 37.9393C118.131 36.5608 118.59 35.1449 119.074 34.0328C119.311 33.7051 119.623 34.3454 119.863 34.6699C120.646 35.7269 121.687 37.0348 121.912 38.3556C122.188 39.9752 121.357 41.408 121.534 43.0432C121.586 43.5203 122.282 43.4347 122.442 43.8839C123.21 46.0299 123.834 48.2486 124.211 50.5078C124.641 53.0822 124.78 55.7075 124.854 58.3211C124.887 59.4578 124.841 60.6276 124.532 61.7175C124.093 63.2744 123.178 64.5153 122.724 66.0195C122.249 67.5929 122.095 68.0629 123.671 68.0619C124.295 68.0609 125.023 68.0872 125.505 68.3417C126.795 69.0231 127.327 70.5945 128.552 71.3988C128.817 71.5723 129.163 71.8131 129.527 72.0285C131.264 73.056 131.455 72.3464 131.816 70.7398C132.293 68.6156 132.414 66.7 132.723 64.605C132.881 63.5424 132.848 62.4525 132.892 61.3782C132.955 59.8467 133.064 58.323 132.989 56.7915C132.955 56.077 132.959 55.2952 132.515 54.7541C132.182 54.3476 131.199 54.7629 131.068 54.2443C130.888 53.5336 131.859 52.9418 131.872 52.2058C131.606 50.2201 131.362 48.4432 131.331 46.486C131.295 44.1786 130.827 45.34 130.103 44.4356C129.666 43.8891 129.529 43.4073 129.461 42.6949C129.259 40.6102 129.545 38.3033 129.243 36.2323C129.108 35.3062 128.698 34.3928 128.118 33.6846C127.908 33.4279 127.522 33.8098 127.378 33.5061C127.137 32.9973 127.877 32.649 127.595 32.1645C126.939 31.039 125.566 30.1798 124.525 29.447C124.213 29.2274 123.664 29.7272 123.399 29.447C123.134 29.1668 123.141 28.3067 123.399 28.0202C125.253 27.7366 126.207 26.8145 127.112 25.7105C128.34 24.2138 128.941 22.5453 129.557 20.6747C129.841 19.8124 129.477 18.8047 129.572 17.8976C129.749 16.219 130.582 14.6946 130.304 13.0314C129.901 10.6127 128.772 8.4452 127.475 6.40746C126.754 5.27623 125.635 4.2736 124.469 3.68995C123.495 3.20291 122.68 3.6104 121.647 3.29094C120.45 2.92108 119.492 2.21382 118.271 1.94944C117.32 1.74355 116.323 2.16254 115.377 1.93219C114.787 1.7883 114.691 1.08696 114.091 0.989667C113.677 0.922402 113.255 1.55529 112.838 1.59253C109.954 1.85057 107.588 1.26049 104.718 1.66048C104.29 1.72023 104.412 2.22472 104.767 2.48423C105.297 2.87213 106.104 2.68056 106.696 2.95128C107.759 3.43793 108.577 4.09215 109.365 4.98941C110.017 5.73147 110.283 6.55688 110.875 7.70692C111.119 8.17836 111.819 7.2731 112.323 7.19736C112.959 7.10143 113.401 7.0834 113.802 7.61362C114.163 8.08926 113.416 8.72313 112.991 9.13345C112.13 9.96246 111.544 10.4015 110.783 10.9519C110.262 11.3287 109.341 11.667 108.954 12.403C108.096 14.0359 109.114 15.8929 109.444 17.7278C109.565 18.397 109.703 19.0512 109.847 19.715C110.314 21.8733 110.157 23.6695 110.442 25.8631C110.534 26.5721 111.01 27.1898 111.085 27.9012C111.173 28.7468 111.029 29.3697 111.149 30.211C111.199 30.5692 111.477 30.9489 111.567 31.2981C111.968 32.8512 112.32 34.8019 112.371 36.4107C112.535 41.6732 112.24 46.8287 112.491 52.0879C112.514 52.5666 113.194 52.7557 113.287 53.2255C113.432 53.9538 112.973 54.7902 112.741 55.4931C111.79 58.3708 110.674 60.5243 110.087 62.9741V62.9741Z" fill="#00AEFF"/>
</svg>
